{
    "patcher": {
        "fileversion": 1,
        "appversion": {
            "major": 9,
            "minor": 1,
            "revision": 4,
            "architecture": "x64",
            "modernui": 1
        },
        "classnamespace": "box",
        "rect": [ 617.0, 145.0, 719.0, 931.0 ],
        "integercoordinates": 1,
        "boxes": [
            {
                "box": {
                    "id": "obj-49",
                    "linecount": 2,
                    "maxclass": "comment",
                    "numinlets": 1,
                    "numoutlets": 0,
                    "patching_rect": [ 283.0, 818.0, 103.0, 33.0 ],
                    "text": "the fix : insert the missing 2 params "
                }
            },
            {
                "box": {
                    "id": "obj-47",
                    "maxclass": "message",
                    "numinlets": 2,
                    "numoutlets": 1,
                    "outlettype": [ "" ],
                    "patching_rect": [ 174.0, 929.0, 50.0, 22.0 ],
                    "text": "write"
                }
            },
            {
                "box": {
                    "id": "obj-45",
                    "maxclass": "newobj",
                    "numinlets": 1,
                    "numoutlets": 1,
                    "outlettype": [ "" ],
                    "patching_rect": [ 416.0, 833.0, 361.0, 22.0 ],
                    "text": "sprintf set replace pattrstorage::slots::%s::data::device-parameters"
                }
            },
            {
                "box": {
                    "id": "obj-44",
                    "maxclass": "newobj",
                    "numinlets": 2,
                    "numoutlets": 2,
                    "outlettype": [ "", "" ],
                    "patching_rect": [ 416.0, 655.0, 65.0, 22.0 ],
                    "text": "zl slice 1"
                }
            },
            {
                "box": {
                    "id": "obj-43",
                    "maxclass": "newobj",
                    "numinlets": 1,
                    "numoutlets": 2,
                    "outlettype": [ "", "" ],
                    "patching_rect": [ 129.0, 624.0, 306.0, 22.0 ],
                    "text": "t l l"
                }
            },
            {
                "box": {
                    "id": "obj-42",
                    "maxclass": "newobj",
                    "numinlets": 1,
                    "numoutlets": 1,
                    "outlettype": [ "" ],
                    "patching_rect": [ 174.0, 879.0, 55.0, 22.0 ],
                    "text": "prepend"
                }
            },
            {
                "box": {
                    "id": "obj-41",
                    "maxclass": "newobj",
                    "numinlets": 2,
                    "numoutlets": 5,
                    "outlettype": [ "dictionary", "", "", "", "" ],
                    "patching_rect": [ 63.0, 929.0, 100.0, 22.0 ],
                    "saved_object_attributes": {
                        "legacy": 0,
                        "parameter_enable": 0,
                        "parameter_mappable": 0
                    },
                    "text": "dict"
                }
            },
            {
                "box": {
                    "id": "obj-39",
                    "maxclass": "message",
                    "numinlets": 2,
                    "numoutlets": 1,
                    "outlettype": [ "" ],
                    "patching_rect": [ 98.0, 693.0, 50.0, 22.0 ],
                    "text": "\"4\""
                }
            },
            {
                "box": {
                    "id": "obj-28",
                    "maxclass": "newobj",
                    "numinlets": 1,
                    "numoutlets": 1,
                    "outlettype": [ "bang" ],
                    "patching_rect": [ 215.0, 775.0, 58.0, 22.0 ],
                    "text": "loadbang"
                }
            },
            {
                "box": {
                    "id": "obj-24",
                    "maxclass": "message",
                    "numinlets": 2,
                    "numoutlets": 1,
                    "outlettype": [ "" ],
                    "patching_rect": [ 215.0, 801.0, 50.0, 22.0 ],
                    "text": "0. 0."
                }
            },
            {
                "box": {
                    "id": "obj-22",
                    "maxclass": "newobj",
                    "numinlets": 3,
                    "numoutlets": 1,
                    "outlettype": [ "" ],
                    "patching_rect": [ 174.0, 829.0, 100.0, 22.0 ],
                    "text": "array.insert 8"
                }
            },
            {
                "box": {
                    "id": "obj-21",
                    "maxclass": "newobj",
                    "numinlets": 1,
                    "numoutlets": 2,
                    "outlettype": [ "", "" ],
                    "patching_rect": [ 175.0, 716.0, 175.0, 22.0 ],
                    "saved_object_attributes": {
                        "legacy": 0
                    },
                    "text": "dict.unpack device-parameters:"
                }
            },
            {
                "box": {
                    "id": "obj-19",
                    "maxclass": "newobj",
                    "numinlets": 2,
                    "numoutlets": 2,
                    "outlettype": [ "", "" ],
                    "patching_rect": [ 129.0, 655.0, 65.0, 22.0 ],
                    "text": "zl slice 1"
                }
            },
            {
                "box": {
                    "id": "obj-18",
                    "maxclass": "newobj",
                    "numinlets": 1,
                    "numoutlets": 2,
                    "outlettype": [ "", "" ],
                    "patching_rect": [ 175.0, 687.0, 100.0, 22.0 ],
                    "saved_object_attributes": {
                        "legacy": 0
                    },
                    "text": "dict.unpack data:"
                }
            },
            {
                "box": {
                    "id": "obj-17",
                    "maxclass": "newobj",
                    "numinlets": 2,
                    "numoutlets": 2,
                    "outlettype": [ "", "" ],
                    "patching_rect": [ 83.0, 564.0, 65.0, 22.0 ],
                    "text": "zl slice 1"
                }
            },
            {
                "box": {
                    "id": "obj-16",
                    "maxclass": "newobj",
                    "numinlets": 1,
                    "numoutlets": 1,
                    "outlettype": [ "" ],
                    "patching_rect": [ 129.0, 593.0, 53.0, 22.0 ],
                    "text": "dict.iter"
                }
            },
            {
                "box": {
                    "id": "obj-12",
                    "maxclass": "comment",
                    "numinlets": 1,
                    "numoutlets": 0,
                    "patching_rect": [ 117.0, 452.0, 150.0, 20.0 ],
                    "text": "device dataset"
                }
            },
            {
                "box": {
                    "id": "obj-10",
                    "maxclass": "message",
                    "numinlets": 2,
                    "numoutlets": 1,
                    "outlettype": [ "" ],
                    "patching_rect": [ 63.0, 450.0, 41.0, 22.0 ],
                    "text": "read"
                }
            },
            {
                "box": {
                    "id": "obj-8",
                    "maxclass": "newobj",
                    "numinlets": 2,
                    "numoutlets": 5,
                    "outlettype": [ "dictionary", "", "", "", "" ],
                    "patching_rect": [ 63.0, 535.0, 100.0, 22.0 ],
                    "saved_object_attributes": {
                        "legacy": 0,
                        "parameter_enable": 0,
                        "parameter_mappable": 0
                    },
                    "text": "dict"
                }
            },
            {
                "box": {
                    "id": "obj-5",
                    "maxclass": "message",
                    "numinlets": 2,
                    "numoutlets": 1,
                    "outlettype": [ "" ],
                    "patching_rect": [ 175.0, 7.0, 66.0, 22.0 ],
                    "text": "read, bang"
                }
            },
            {
                "box": {
                    "id": "obj-6",
                    "maxclass": "dict.view",
                    "numinlets": 1,
                    "numoutlets": 0,
                    "patching_rect": [ 175.0, 67.0, 160.0, 329.0 ]
                }
            },
            {
                "box": {
                    "id": "obj-7",
                    "maxclass": "newobj",
                    "numinlets": 2,
                    "numoutlets": 5,
                    "outlettype": [ "dictionary", "", "", "", "" ],
                    "patching_rect": [ 175.0, 34.0, 100.0, 22.0 ],
                    "saved_object_attributes": {
                        "legacy": 0,
                        "parameter_enable": 0,
                        "parameter_mappable": 0
                    },
                    "text": "dict"
                }
            },
            {
                "box": {
                    "id": "obj-4",
                    "maxclass": "message",
                    "numinlets": 2,
                    "numoutlets": 1,
                    "outlettype": [ "" ],
                    "patching_rect": [ 8.0, 7.0, 66.0, 22.0 ],
                    "text": "read, bang"
                }
            },
            {
                "box": {
                    "id": "obj-2",
                    "maxclass": "dict.view",
                    "numinlets": 1,
                    "numoutlets": 0,
                    "patching_rect": [ 8.0, 67.0, 160.0, 329.0 ]
                }
            },
            {
                "box": {
                    "id": "obj-1",
                    "maxclass": "newobj",
                    "numinlets": 2,
                    "numoutlets": 5,
                    "outlettype": [ "dictionary", "", "", "", "" ],
                    "patching_rect": [ 8.0, 34.0, 100.0, 22.0 ],
                    "saved_object_attributes": {
                        "legacy": 0,
                        "parameter_enable": 0,
                        "parameter_mappable": 0
                    },
                    "text": "dict"
                }
            },
            {
                "box": {
                    "id": "obj-13",
                    "maxclass": "message",
                    "numinlets": 2,
                    "numoutlets": 1,
                    "outlettype": [ "" ],
                    "patching_rect": [ 80.0, 506.0, 163.0, 22.0 ],
                    "text": "bang, get pattrstorage::slots"
                }
            }
        ],
        "lines": [
            {
                "patchline": {
                    "destination": [ "obj-2", 0 ],
                    "source": [ "obj-1", 0 ]
                }
            },
            {
                "patchline": {
                    "destination": [ "obj-8", 0 ],
                    "source": [ "obj-10", 0 ]
                }
            },
            {
                "patchline": {
                    "destination": [ "obj-8", 0 ],
                    "source": [ "obj-13", 0 ]
                }
            },
            {
                "patchline": {
                    "destination": [ "obj-43", 0 ],
                    "source": [ "obj-16", 0 ]
                }
            },
            {
                "patchline": {
                    "destination": [ "obj-16", 0 ],
                    "source": [ "obj-17", 1 ]
                }
            },
            {
                "patchline": {
                    "destination": [ "obj-21", 0 ],
                    "source": [ "obj-18", 0 ]
                }
            },
            {
                "patchline": {
                    "destination": [ "obj-18", 0 ],
                    "source": [ "obj-19", 1 ]
                }
            },
            {
                "patchline": {
                    "destination": [ "obj-39", 1 ],
                    "source": [ "obj-19", 0 ]
                }
            },
            {
                "patchline": {
                    "destination": [ "obj-22", 0 ],
                    "source": [ "obj-21", 0 ]
                }
            },
            {
                "patchline": {
                    "destination": [ "obj-42", 0 ],
                    "source": [ "obj-22", 0 ]
                }
            },
            {
                "patchline": {
                    "destination": [ "obj-22", 1 ],
                    "source": [ "obj-24", 0 ]
                }
            },
            {
                "patchline": {
                    "destination": [ "obj-24", 0 ],
                    "source": [ "obj-28", 0 ]
                }
            },
            {
                "patchline": {
                    "destination": [ "obj-1", 0 ],
                    "source": [ "obj-4", 0 ]
                }
            },
            {
                "patchline": {
                    "destination": [ "obj-41", 0 ],
                    "source": [ "obj-42", 0 ]
                }
            },
            {
                "patchline": {
                    "destination": [ "obj-19", 0 ],
                    "source": [ "obj-43", 0 ]
                }
            },
            {
                "patchline": {
                    "destination": [ "obj-44", 0 ],
                    "source": [ "obj-43", 1 ]
                }
            },
            {
                "patchline": {
                    "destination": [ "obj-45", 0 ],
                    "source": [ "obj-44", 0 ]
                }
            },
            {
                "patchline": {
                    "destination": [ "obj-42", 0 ],
                    "source": [ "obj-45", 0 ]
                }
            },
            {
                "patchline": {
                    "destination": [ "obj-41", 0 ],
                    "source": [ "obj-47", 0 ]
                }
            },
            {
                "patchline": {
                    "destination": [ "obj-7", 0 ],
                    "source": [ "obj-5", 0 ]
                }
            },
            {
                "patchline": {
                    "destination": [ "obj-6", 0 ],
                    "source": [ "obj-7", 0 ]
                }
            },
            {
                "patchline": {
                    "destination": [ "obj-17", 0 ],
                    "source": [ "obj-8", 1 ]
                }
            },
            {
                "patchline": {
                    "destination": [ "obj-41", 0 ],
                    "source": [ "obj-8", 0 ]
                }
            }
        ],
        "autosave": 0
    }
}